<svg viewBox="0 0 512 512" xmlns="http://www.w3.org/2000/svg" fill-rule="evenodd" clip-rule="evenodd" stroke-linejoin="round" stroke-miterlimit="2"><path d="M256 6.333h-7.313C181.541 9 105.73 52.208 90.437 120.708c-.666 2.646-3.979 2.646-4.645 0-3.334-16.646-2.667-34.583 2-49.875a262.577 262.577 0 00-37.917 43.208 135.616 135.616 0 00-13.292 27.917c-9.312 29.27-5.979 64.5 14.625 88.437C70.5 253 101.083 260.98 125.688 276.27c24.583 14.646 45.874 34.584 55.833 62.5 10.645 29.271 8.666 62.5-2.646 91.104-.667 2.646-4.646 1.98-4.646-1.333 2.646-41.875-18.625-81.125-57.854-99.729-20.625-9.313-43.875-13.312-64.5-23.27C33.292 296.894 9.333 279.603 6 257c0 136.958 111.708 248.666 250 248.666 137.645 0 250-111.708 250-250C506 117.375 393.644 6.333 256 6.333m182.187 388.291a242.91 242.91 0 01-67.813 59.834c-26.145 15.52 0-.667.667-.667-17.292 9.98-35.917 18.625-55.854 23.958 15.292-12.646 65.146-45.229 65.146-135 0-66.479-41.875-111.041-89.083-132.958-53.855-25.27-111.709-38.583-111.709-106.395 0-35.896 28.584-74.459 73.125-75.125 2.667-.667 6-.667 8.667-.667h2.646c59.208 1.833 115.375 26.917 156.25 69.792 41.541 42.687 64.729 100.02 64.5 159.583v1.333c0 27.917-5.313 55.208-14.626 80.458v.667c-.666 2-2 4.646-2.666 6.667-.667 1.312-1.334 2.645-1.334 3.312 0 .667-.666.667-.666 1.333a279.251 279.251 0 01-27.25 43.875" fill="#c33139" fill-rule="nonzero"/></svg>